REM DIRINDEX 1\5,1\2\6,1\2\7,1\3\8,1\3\9,1\4\10,1\4\11,1\4\12
REM DIRNAME cjc026,folder01,folder02,folder03,folder04,folder05,folder06,folder07,folder08,folder09,folder10,folder11
TITLE ""
FILE "EJE_DB3000_5th_5C_12.mp3" MP3
  TRACK 01 AUDIO
    TITLE "0:"
    INDEX 01 00:00:00
  TRACK 02 AUDIO
    TITLE "10:cjc026_10569"
    INDEX 01 00:00:08
  TRACK 03 AUDIO
    TITLE "0:"
    INDEX 01 00:01:33
  TRACK 04 AUDIO
    TITLE "11:cjc026_10570"
    INDEX 01 00:01:68
  TRACK 05 AUDIO
    TITLE "0:"
    INDEX 01 00:03:15
  TRACK 06 AUDIO
    TITLE "12:cjc026_10571"
    INDEX 01 00:03:53
  TRACK 07 AUDIO
    TITLE "0:"
    INDEX 01 00:05:00
  TRACK 08 AUDIO
    TITLE "10:cjc026_10572"
    INDEX 01 00:05:35
  TRACK 09 AUDIO
    TITLE "0:"
    INDEX 01 00:06:71
  TRACK 10 AUDIO
    TITLE "11:cjc026_10573"
    INDEX 01 00:07:28
  TRACK 11 AUDIO
    TITLE "0:"
    INDEX 01 00:08:66
  TRACK 12 AUDIO
    TITLE "12:cjc026_10574"
    INDEX 01 00:09:27
  TRACK 13 AUDIO
    TITLE "0:"
    INDEX 01 00:10:62
  TRACK 14 AUDIO
    TITLE "10:cjc026_10575"
    INDEX 01 00:11:22
  TRACK 15 AUDIO
    TITLE "0:"
    INDEX 01 00:12:31
  TRACK 16 AUDIO
    TITLE "11:cjc026_10576"
    INDEX 01 00:12:66
  TRACK 17 AUDIO
    TITLE "0:"
    INDEX 01 00:14:11
  TRACK 18 AUDIO
    TITLE "12:cjc026_10577"
    INDEX 01 00:14:46
  TRACK 19 AUDIO
    TITLE "0:"
    INDEX 01 00:15:54
  TRACK 20 AUDIO
    TITLE "10:cjc026_10578"
    INDEX 01 00:16:15
  TRACK 21 AUDIO
    TITLE "0:"
    INDEX 01 00:17:31
  TRACK 22 AUDIO
    TITLE "11:cjc026_10579"
    INDEX 01 00:17:66
  TRACK 23 AUDIO
    TITLE "0:"
    INDEX 01 00:19:14
  TRACK 24 AUDIO
    TITLE "12:cjc026_10580"
    INDEX 01 00:19:51
  TRACK 25 AUDIO
    TITLE "0:"
    INDEX 01 00:20:68
  TRACK 26 AUDIO
    TITLE "10:cjc026_10581"
    INDEX 01 00:21:26
  TRACK 27 AUDIO
    TITLE "0:"
    INDEX 01 00:22:42
  TRACK 28 AUDIO
    TITLE "11:cjc026_10582"
    INDEX 01 00:23:05
  TRACK 29 AUDIO
    TITLE "0:"
    INDEX 01 00:24:44
  TRACK 30 AUDIO
    TITLE "12:cjc026_10583"
    INDEX 01 00:25:04
  TRACK 31 AUDIO
    TITLE "0:"
    INDEX 01 00:26:21
  TRACK 32 AUDIO
    TITLE "10:cjc026_10584"
    INDEX 01 00:26:58
  TRACK 33 AUDIO
    TITLE "0:"
    INDEX 01 00:27:70
  TRACK 34 AUDIO
    TITLE "11:cjc026_10585"
    INDEX 01 00:28:33
  TRACK 35 AUDIO
    TITLE "0:"
    INDEX 01 00:29:71
  TRACK 36 AUDIO
    TITLE "12:cjc026_10586"
    INDEX 01 00:30:34
  TRACK 37 AUDIO
    TITLE "0:"
    INDEX 01 00:31:48
  TRACK 38 AUDIO
    TITLE "10:cjc026_10587"
    INDEX 01 00:32:08
  TRACK 39 AUDIO
    TITLE "0:"
    INDEX 01 00:33:49
  TRACK 40 AUDIO
    TITLE "11:cjc026_10588"
    INDEX 01 00:34:12
  TRACK 41 AUDIO
    TITLE "0:"
    INDEX 01 00:35:34
  TRACK 42 AUDIO
    TITLE "12:cjc026_10589"
    INDEX 01 00:35:72
  TRACK 43 AUDIO
    TITLE "0:"
    INDEX 01 00:37:38
  TRACK 44 AUDIO
    TITLE "10:cjc026_10590"
    INDEX 01 00:37:73
  TRACK 45 AUDIO
    TITLE "0:"
    INDEX 01 00:39:15
  TRACK 46 AUDIO
    TITLE "11:cjc026_10591"
    INDEX 01 00:39:50
  TRACK 47 AUDIO
    TITLE "0:"
    INDEX 01 00:40:72
  TRACK 48 AUDIO
    TITLE "12:cjc026_10592"
    INDEX 01 00:41:32
  TRACK 49 AUDIO
    TITLE "0:"
    INDEX 01 00:42:49
  TRACK 50 AUDIO
    TITLE "10:cjc026_10593"
    INDEX 01 00:43:09
  TRACK 51 AUDIO
    TITLE "0:"
    INDEX 01 00:44:29
  TRACK 52 AUDIO
    TITLE "11:cjc026_10594"
    INDEX 01 00:44:64
  TRACK 53 AUDIO
    TITLE "0:"
    INDEX 01 00:45:72
  TRACK 54 AUDIO
    TITLE "12:cjc026_10595"
    INDEX 01 00:46:30
  TRACK 55 AUDIO
    TITLE "0:"
    INDEX 01 00:47:52
  TRACK 56 AUDIO
    TITLE "10:cjc026_10596"
    INDEX 01 00:48:12
  TRACK 57 AUDIO
    TITLE "0:"
    INDEX 01 00:49:21
  TRACK 58 AUDIO
    TITLE "11:cjc026_10597"
    INDEX 01 00:49:56
  TRACK 59 AUDIO
    TITLE "0:"
    INDEX 01 00:51:11
  TRACK 60 AUDIO
    TITLE "12:cjc026_10598"
    INDEX 01 00:51:46
  TRACK 61 AUDIO
    TITLE "0:"
    INDEX 01 00:52:55
  TRACK 62 AUDIO
    TITLE "10:cjc026_10599"
    INDEX 01 00:53:15
  TRACK 63 AUDIO
    TITLE "0:"
    INDEX 01 00:54:54
  TRACK 64 AUDIO
    TITLE "11:cjc026_10600"
    INDEX 01 00:55:14
  TRACK 65 AUDIO
    TITLE "0:"
    INDEX 01 00:56:68
  TRACK 66 AUDIO
    TITLE "12:cjc026_10601"
    INDEX 01 00:57:26
  TRACK 67 AUDIO
    TITLE "0:"
    INDEX 01 00:58:64
  TRACK 68 AUDIO
    TITLE "10:cjc026_10602"
    INDEX 01 00:59:24
  TRACK 69 AUDIO
    TITLE "0:"
    INDEX 01 01:00:44
  TRACK 70 AUDIO
    TITLE "11:cjc026_10603"
    INDEX 01 01:01:06
  TRACK 71 AUDIO
    TITLE "0:"
    INDEX 01 01:04:00
  TRACK 72 AUDIO
    TITLE "12:cjc026_10604"
    INDEX 01 01:04:35
  TRACK 73 AUDIO
    TITLE "0:"
    INDEX 01 01:05:57
  TRACK 74 AUDIO
    TITLE "10:cjc026_10605"
    INDEX 01 01:06:17
  TRACK 75 AUDIO
    TITLE "0:"
    INDEX 01 01:07:53
  TRACK 76 AUDIO
    TITLE "11:cjc026_10606"
    INDEX 01 01:08:13
  TRACK 77 AUDIO
    TITLE "0:"
    INDEX 01 01:10:44
  TRACK 78 AUDIO
    TITLE "12:cjc026_10607"
    INDEX 01 01:11:04
  TRACK 79 AUDIO
    TITLE "0:"
    INDEX 01 01:12:40
  TRACK 80 AUDIO
    TITLE "10:cjc026_10608"
    INDEX 01 01:13:00
  TRACK 81 AUDIO
    TITLE "0:"
    INDEX 01 01:14:22
  TRACK 82 AUDIO
    TITLE "11:cjc026_10609"
    INDEX 01 01:14:57
  TRACK 83 AUDIO
    TITLE "0:"
    INDEX 01 01:16:10
  TRACK 84 AUDIO
    TITLE "12:cjc026_10610"
    INDEX 01 01:16:45
  TRACK 85 AUDIO
    TITLE "0:"
    INDEX 01 01:17:67
